<svg version="1.1" viewBox="0.0 0.0 960.0 540.0" fill="none" stroke="none" stroke-linecap="square" stroke-miterlimit="10" xmlns:xlink="http://www.w3.org/1999/xlink" xmlns="http://www.w3.org/2000/svg"><clipPath id="g2fa7ab7855b_0_12.0"><path d="m0 0l960.0 0l0 540.0l-960.0 0l0 -540.0z" clip-rule="nonzero"/></clipPath><g clip-path="url(#g2fa7ab7855b_0_12.0)"><path fill="#000000" fill-opacity="0.0" d="m0 0l960.0 0l0 540.0l-960.0 0z" fill-rule="evenodd"/><path fill="#000000" fill-opacity="0.0" d="m272.95538 57.367455l146.99213 0l0 345.22833l-146.99213 0z" fill-rule="evenodd"/><path fill="#ffffff" d="m367.971 411.02493q-22.40625 0 -33.75 -11.203125q-11.34375 -11.1875 -11.34375 -33.0l0 -68.6875q0 -7.765625 -3.59375 -11.34375q-3.578125 -3.59375 -9.859375 -3.59375l-10.453125 0l0 -23.890625l10.453125 0q6.28125 0 9.859375 -3.5781403q3.59375 -3.59375 3.59375 -11.34375l0 -68.703125q0 -22.09375 11.34375 -33.140625q11.34375 -11.0625 33.75 -11.0625l13.140625 0l0 23.59375l-7.46875 0q-11.046875 0 -16.578125 5.984375q-5.515625 5.96875 -5.515625 17.3125l0 65.40625q0 10.453125 -2.6875 16.281265q-2.6875 5.828125 -7.921875 8.671875q-5.21875 2.828125 -13.59375 4.3125l0 -3.578125q8.375 1.203125 13.59375 4.1875q5.234375 2.984375 7.921875 8.8125q2.6875 5.8125 2.6875 16.265625l0 65.40625q0 11.359375 5.515625 17.328125q5.53125 5.96875 16.578125 5.96875l7.46875 0l0 23.59375l-13.140625 0z" fill-rule="nonzero"/><path fill="#000000" fill-opacity="0.0" d="m558.95276 57.367455l213.44879 0l0 345.22833l-213.44879 0z" fill-rule="evenodd"/><path fill="#ffffff" d="m586.76526 411.02493l-13.140625 0l0 -23.59375l7.171875 0q11.640625 0 17.171875 -5.96875q5.53125 -5.96875 5.53125 -17.328125l0 -65.40625q0 -10.453125 2.53125 -16.265625q2.546875 -5.828125 7.921875 -8.8125q5.375 -2.984375 13.4375 -4.1875l0 3.578125q-8.0625 -1.484375 -13.4375 -4.3125q-5.375 -2.84375 -7.921875 -8.671875q-2.53125 -5.8281403 -2.53125 -16.281265l0 -65.40625q0 -11.34375 -5.53125 -17.3125q-5.53125 -5.984375 -17.171875 -5.984375l-7.171875 0l0 -23.59375l13.140625 0q22.40625 0 33.90625 11.0625q11.5 11.046875 11.5 33.140625l0 68.703125q0 7.75 3.578125 11.34375q3.578125 3.5781403 9.5625 3.5781403l10.140625 0l0 23.890625l-10.140625 0q-5.984375 0 -9.5625 3.59375q-3.578125 3.578125 -3.578125 11.34375l0 68.6875q0 21.8125 -11.5 33.0q-11.5 11.203125 -33.90625 11.203125z" fill-rule="nonzero"/><path fill="#000000" fill-opacity="0.0" d="m32.725285 178.25984l894.5512 0l0 215.49608l-894.5512 0z" fill-rule="evenodd"/><path fill="#ffffff" d="m405.07642 220.64493q-4.1875 0 -7.71875 -1.625q-3.515625 -1.625 -5.765625 -4.671875l4.625 -5.5625q1.796875 2.5 3.953125 3.75q2.15625 1.25 4.71875 1.25q6.796875 0 6.796875 -8.046875l0 -22.59375l-15.53125 0l0 -6.796875l23.640625 0l0 28.953125q0 7.734375 -3.78125 11.546875q-3.765625 3.796875 -10.9375 3.796875zm39.614197 0q-5.125 0 -9.8125 -1.46875q-4.671875 -1.46875 -7.40625 -3.765625l2.796875 -6.3125q2.625 2.0625 6.484375 3.4375q3.875 1.375 7.9375 1.375q3.421875 0 5.546875 -0.75q2.125 -0.75 3.125 -2.03125q1.0 -1.28125 1.0 -2.90625q0 -1.984375 -1.4375 -3.203125q-1.4375 -1.21875 -3.71875 -1.9375q-2.265625 -0.71875 -5.046875 -1.34375q-2.78125 -0.625 -5.5625 -1.46875q-2.765625 -0.84375 -5.046875 -2.171875q-2.28125 -1.34375 -3.71875 -3.59375q-1.421875 -2.25 -1.421875 -5.734375q0 -3.5625 1.890625 -6.515625q1.90625 -2.96875 5.796875 -4.75q3.90625 -1.78125 9.90625 -1.78125q3.921875 0 7.78125 1.0q3.875 1.0 6.75 2.875l-2.5625 6.296875q-2.921875 -1.75 -6.046875 -2.59375q-3.125 -0.84375 -5.984375 -0.84375q-3.375 0 -5.46875 0.8125q-2.078125 0.8125 -3.046875 2.125q-0.96875 1.3125 -0.96875 3.0q0 1.984375 1.390625 3.203125q1.40625 1.21875 3.6875 1.90625q2.28125 0.6875 5.078125 1.34375q2.8125 0.65625 5.59375 1.46875q2.78125 0.8125 5.046875 2.125q2.28125 1.296875 3.6875 3.546875q1.40625 2.25 1.40625 5.671875q0 3.5 -1.90625 6.46875q-1.90625 2.953125 -5.84375 4.734375q-3.921875 1.78125 -9.90625 1.78125zm46.165527 0q-5.109375 0 -9.421875 -1.6875q-4.296875 -1.6875 -7.484375 -4.703125q-3.1875 -3.03125 -4.9375 -7.109375q-1.734375 -4.09375 -1.734375 -8.96875q0 -4.859375 1.734375 -8.9375q1.75 -4.09375 4.9375 -7.109375q3.1875 -3.03125 7.484375 -4.71875q4.3125 -1.6875 9.359375 -1.6875q5.109375 0 9.390625 1.6875q4.28125 1.6875 7.453125 4.71875q3.1875 3.015625 4.921875 7.109375q1.75 4.078125 1.75 8.9375q0 4.875 -1.75 9.0q-1.734375 4.109375 -4.921875 7.109375q-3.171875 2.984375 -7.453125 4.671875q-4.28125 1.6875 -9.328125 1.6875zm-0.0625 -7.109375q3.3125 0 6.109375 -1.125q2.8125 -1.125 4.875 -3.21875q2.0625 -2.09375 3.203125 -4.859375q1.15625 -2.78125 1.15625 -6.15625q0 -3.359375 -1.15625 -6.140625q-1.140625 -2.78125 -3.203125 -4.859375q-2.0625 -2.09375 -4.875 -3.21875q-2.796875 -1.125 -6.109375 -1.125q-3.3125 0 -6.09375 1.125q-2.765625 1.125 -4.859375 3.21875q-2.078125 2.078125 -3.234375 4.859375q-1.15625 2.78125 -1.15625 6.140625q0 3.3125 1.15625 6.125q1.15625 2.796875 3.203125 4.890625q2.0625 2.09375 4.859375 3.21875q2.8125 1.125 6.125 1.125zm32.126648 6.484375l0 -43.671875l6.6875 0l27.390564 33.625l-3.3125 0l0 -33.625l8.046875 0l0 43.671875l-6.671875 0l-27.390564 -33.625l3.296875 0l0 33.625l-8.046875 0z" fill-rule="nonzero"/><path fill="#ffffff" d="m382.82227 294.89993l0 -43.67189l6.6875 0l19.078125 31.875015l-3.484375 0l18.78125 -31.875015l6.671875 0l0.0625 43.67189l-7.671875 0l-0.0625 -31.625l1.625 0l-15.984375 26.640625l-3.609375 0l-16.21875 -26.640625l1.859375 0l0 31.625l-7.734375 0zm74.50488 0.4375q-5.5625 0 -9.71875 -2.21875q-4.140625 -2.21875 -6.421875 -6.078125q-2.265625 -3.875 -2.265625 -8.796875q0 -5.0 2.203125 -8.828125q2.21875 -3.84375 6.109375 -6.015625q3.90625 -2.1875 8.90625 -2.1875q4.859375 0 8.65625 2.125q3.8125 2.109375 6.0 5.984375q2.1875 3.859375 2.1875 9.109375q0 0.5 -0.03125 1.125q-0.03125 0.625 -0.09375 1.1875l-27.765625 0l0 -5.1875l23.640625 0l-3.046875 1.625q0.0625 -2.875 -1.1875 -5.046875q-1.25 -2.1875 -3.40625 -3.4375q-2.15625 -1.25 -4.953125 -1.25q-2.875 0 -5.03125 1.25q-2.140625 1.25 -3.359375 3.46875q-1.21875 2.203125 -1.21875 5.203125l0 1.25q0 2.984375 1.375 5.296875q1.375 2.3125 3.859375 3.5625q2.5 1.25 5.75 1.25q2.796875 0 5.046875 -0.875q2.25 -0.875 4.0 -2.75l4.171875 4.8125q-2.25 2.609375 -5.65625 4.015625q-3.390625 1.40625 -7.75 1.40625zm23.13504 -0.4375l0 -33.3125l7.4375 0l0 9.171875l-0.875 -2.6875q1.5 -3.375 4.703125 -5.109375q3.21875 -1.75 8.015625 -1.75l0 7.421875q-0.5 -0.125 -0.9375 -0.15625q-0.4375 -0.03125 -0.875 -0.03125q-4.421875 0 -7.046875 2.59375q-2.609375 2.578125 -2.609375 7.703125l0 16.15625l-7.8125 0zm40.689423 12.546875q-4.625 0 -9.03125 -1.21875q-4.390625 -1.21875 -7.1875 -3.53125l3.484375 -5.859375q2.1875 1.8125 5.515625 2.890625q3.34375 1.09375 6.78125 1.09375q5.484375 0 8.046875 -2.53125q2.5625 -2.515625 2.5625 -7.578125l0 -5.921875l0.625 -7.546875l-0.25 -7.546875l0 -8.109375l7.421875 0l0 28.265625q0 9.046875 -4.625 13.3125q-4.609375 4.28125 -13.34375 4.28125zm-1.0 -14.046875q-4.75 0 -8.59375 -2.015625q-3.828125 -2.03125 -6.046875 -5.65625q-2.203125 -3.625 -2.203125 -8.484375q0 -4.796875 2.203125 -8.421875q2.21875 -3.625 6.046875 -5.609375q3.84375 -2.0 8.59375 -2.0q4.234375 0 7.609375 1.6875q3.375 1.671875 5.390625 5.234375q2.03125 3.5625 2.03125 9.109375q0 5.546875 -2.03125 9.140625q-2.015625 3.59375 -5.390625 5.3125q-3.375 1.703125 -7.609375 1.703125zm1.1875 -6.609375q2.921875 0 5.234375 -1.21875q2.3125 -1.21875 3.59375 -3.359375q1.28125 -2.15625 1.28125 -4.96875q0 -2.8125 -1.28125 -4.953125q-1.28125 -2.15625 -3.59375 -3.3125q-2.3125 -1.15625 -5.234375 -1.15625q-2.9375 0 -5.28125 1.15625q-2.328125 1.15625 -3.609375 3.3125q-1.28125 2.140625 -1.28125 4.953125q0 2.8125 1.28125 4.96875q1.28125 2.140625 3.609375 3.359375q2.34375 1.21875 5.28125 1.21875zm43.674072 8.546875q-5.5625 0 -9.71875 -2.21875q-4.140625 -2.21875 -6.421875 -6.078125q-2.265625 -3.875 -2.265625 -8.796875q0 -5.0 2.203125 -8.828125q2.21875 -3.84375 6.109375 -6.015625q3.90625 -2.1875 8.90625 -2.1875q4.859375 0 8.65625 2.125q3.8125 2.109375 6.0 5.984375q2.1875 3.859375 2.1875 9.109375q0 0.5 -0.03125 1.125q-0.03125 0.625 -0.09375 1.1875l-27.765625 0l0 -5.1875l23.640625 0l-3.046875 1.625q0.0625 -2.875 -1.1875 -5.046875q-1.25 -2.1875 -3.40625 -3.4375q-2.15625 -1.25 -4.953125 -1.25q-2.875 0 -5.03125 1.25q-2.140625 1.25 -3.359375 3.46875q-1.21875 2.203125 -1.21875 5.203125l0 1.25q0 2.984375 1.375 5.296875q1.375 2.3125 3.859375 3.5625q2.5 1.25 5.75 1.25q2.796875 0 5.046875 -0.875q2.25 -0.875 4.0 -2.75l4.171875 4.8125q-2.25 2.609375 -5.65625 4.015625q-3.390625 1.40625 -7.75 1.40625z" fill-rule="nonzero"/><path fill="#ffffff" d="m392.74252 369.7799l0 -43.671875l17.96875 0q5.8125 0 9.953125 1.875q4.15625 1.859375 6.390625 5.359375q2.25 3.5 2.25 8.296875q0 4.8125 -2.25 8.3125q-2.234375 3.484375 -6.390625 5.359375q-4.140625 1.859375 -9.953125 1.859375l-13.46875 0l3.609375 -3.796875l0 16.40625l-8.109375 0zm8.109375 -15.53125l-3.609375 -3.9375l13.09375 0q5.375 0 8.078125 -2.265625q2.71875 -2.28125 2.71875 -6.40625q0 -4.171875 -2.71875 -6.421875q-2.703125 -2.25 -8.078125 -2.25l-13.09375 0l3.609375 -3.984375l0 25.265625zm56.031403 15.53125l0 -6.734375l-0.4375 -1.4375l0 -11.796875q0 -3.421875 -2.0625 -5.328125q-2.046875 -1.90625 -6.234375 -1.90625q-2.8125 0 -5.53125 0.875q-2.703125 0.875 -4.578125 2.4375l-3.046875 -5.6875q2.671875 -2.046875 6.375 -3.078125q3.71875 -1.03125 7.71875 -1.03125q7.234375 0 11.1875 3.46875q3.96875 3.453125 3.96875 10.6875l0 19.53125l-7.359375 0zm-10.484375 0.4375q-3.734375 0 -6.546875 -1.28125q-2.8125 -1.28125 -4.34375 -3.546875q-1.515625 -2.28125 -1.515625 -5.15625q0 -2.8125 1.328125 -5.046875q1.34375 -2.25 4.40625 -3.5625q3.0625 -1.3125 8.109375 -1.3125l9.671875 0l0 5.1875l-9.109375 0q-3.984375 0 -5.359375 1.28125q-1.375 1.265625 -1.375 3.140625q0 2.125 1.671875 3.375q1.6875 1.25 4.6875 1.25q2.875 0 5.140625 -1.3125q2.28125 -1.3125 3.28125 -3.875l1.3125 4.6875q-1.125 2.921875 -4.03125 4.546875q-2.890625 1.625 -7.328125 1.625zm40.371094 0q-5.484375 0 -8.484375 -2.828125q-3.0 -2.84375 -3.0 -8.40625l0 -29.875l7.796875 0l0 29.6875q0 2.375 1.21875 3.6875q1.21875 1.3125 3.40625 1.3125q2.625 0 4.359375 -1.375l2.1875 5.546875q-1.375 1.125 -3.375 1.6875q-1.984375 0.5625 -4.109375 0.5625zm-16.96875 -27.265625l0 -6.234375l22.203125 0l0 6.234375l-22.203125 0zm45.049133 27.265625q-5.25 0 -9.34375 -2.21875q-4.078125 -2.21875 -6.390625 -6.078125q-2.296875 -3.875 -2.296875 -8.796875q0 -5.0 2.296875 -8.828125q2.3125 -3.84375 6.390625 -6.015625q4.09375 -2.1875 9.34375 -2.1875q4.859375 0 8.5625 1.96875q3.71875 1.953125 5.65625 5.765625l-5.984375 3.5q-1.5 -2.375 -3.65625 -3.5q-2.15625 -1.125 -4.640625 -1.125q-2.875 0 -5.1875 1.25q-2.296875 1.25 -3.609375 3.59375q-1.3125 2.328125 -1.3125 5.578125q0 3.25 1.3125 5.59375q1.3125 2.328125 3.609375 3.578125q2.3125 1.25 5.1875 1.25q2.484375 0 4.640625 -1.125q2.15625 -1.125 3.65625 -3.5l5.984375 3.5q-1.9375 3.734375 -5.65625 5.765625q-3.703125 2.03125 -8.5625 2.03125zm39.546326 -34.125q4.0 0 7.140625 1.5625q3.15625 1.546875 4.96875 4.765625q1.8125 3.21875 1.8125 8.265625l0 19.09375l-7.796875 0l0 -18.09375q0 -4.421875 -2.09375 -6.609375q-2.09375 -2.1875 -5.828125 -2.1875q-2.75 0 -4.875 1.125q-2.125 1.125 -3.28125 3.34375q-1.140625 2.203125 -1.140625 5.578125l0 16.84375l-7.8125 0l0 -46.296875l7.8125 0l0 21.96875l-1.6875 -2.75q1.75 -3.1875 5.078125 -4.890625q3.34375 -1.71875 7.703125 -1.71875z" fill-rule="nonzero"/></g></svg>